<svg width="180" height="63" viewBox="0 0 180 63" fill="none" xmlns="http://www.w3.org/2000/svg">
<path fill-rule="evenodd" clip-rule="evenodd" d="M34.4077 0.420099L33.7622 0.861378C22.1149 0.486291 10.8829 1.72187 3.51613 10.7313C1.37212 13.3569 1.55017 18.336 3.77579 21.2117C6.80262 25.1097 11.3503 26.0805 16.2244 25.9555C25.661 14.3572 37.4271 5.14179 51.0182 1.78806C52.5019 1.42033 53.6592 1.86897 54.3269 2.17051C57.7395 3.69292 52.3535 11.6433 50.1428 13.71C41.7745 21.5353 31.4476 24.5213 20.9427 26.9042C18.8135 30.3168 9.90365 44.3421 16.3134 46.5191C20.8388 48.0562 27.1818 44.1729 31.6331 39.363C39.942 30.3756 36.4627 26.4041 30.9431 28.1545C27.3376 29.3018 22.9458 33.5234 19.4664 38.0024L18.9767 37.745C21.284 32.6629 28.992 26.7056 33.9477 26.5144C37.6793 26.3747 39.8678 29.7872 36.4775 37.9509C39.6156 36.0534 43.0356 34.2 45.7064 31.6994C47.9394 29.6107 49.438 27.6176 51.3223 25.1685C56.419 18.542 61.1076 11.1947 68.2148 6.04641C72.4657 3.76647 72.5547 8.68673 68.9937 13.9453C65.3215 19.373 58.8894 24.6831 57.0051 25.8672C54.2676 28.0074 50.3208 29.7578 48.5848 33.1924C50.9069 32.707 53.9337 27.7794 57.8805 29.596C60.5512 30.8316 58.7633 34.2809 56.3893 37.5979C52.0642 43.6507 49.7347 46.2396 52.042 46.0189C53.2883 45.9013 58.1995 42.7388 61.4415 38.5687C64.3645 34.8031 67.8142 31.2361 70.7445 29.949C74.1943 28.4413 76.8947 29.265 77.911 30.6257C79.1054 32.2143 78.0965 34.3692 77.5178 37.2963C77.362 38.0024 78.4378 37.6935 78.7568 37.5096C83.757 34.2441 89.1133 30.4197 92.8449 25.2126C93.9874 25.0214 95.2634 25.1538 96.5914 25.1538C96.0053 26.9851 90.1297 32.229 90.7009 33.5455C91.057 34.3618 94.7144 30.8831 97.3852 29.6695C100.724 28.1618 101.235 31.0375 99.2695 34.2074C97.17 37.5905 93.6461 41.6282 92.971 43.4154C92.8449 44.1067 92.9414 45.2026 93.7203 45.1217C95.1225 44.9672 96.2575 44.2097 97.3926 43.4007C98.9431 42.2975 100.434 40.9737 102.044 39.8484C103.78 35.4871 113.677 25.323 119.159 30.5595C119.426 30.8169 119.604 31.3243 120.005 31.4494C120.673 31.6553 121.481 30.6183 121.986 29.927C122.475 29.949 123.38 29.8902 124.174 29.927C124.627 29.949 125.331 29.6401 125.621 29.7578C125.91 29.8755 125.613 30.3903 125.398 30.6551C121.57 35.2959 118.15 38.9732 115.976 44.1509C115.554 45.1584 116.577 45.7395 117.423 45.2173C121.021 42.9815 123.514 39.7307 125.955 36.4726C127.676 34.1706 129.071 31.9863 130.695 29.8019C131.452 28.787 129.345 27.9044 129.642 26.5438C129.924 25.2641 131.704 24.7566 132.491 25.3818C134.278 26.8159 132.409 28.0295 133.158 28.7796C134.538 30.1697 137.231 31.1258 136.489 33.7882C135.859 36.0387 132.238 40.3632 130.97 41.9739C127.973 45.7615 132.476 45.688 137.35 40.9516C138.544 37.5684 146.163 29.1694 151.876 29.5225C153.486 29.6181 155.644 29.9711 156.349 32.1039C162.536 24.9037 169.666 14.0483 175.994 6.1935C177.322 6.44356 178.924 5.68603 180 6.37737C177.537 9.83405 174.71 13.2319 172.062 16.6224C167.907 21.9472 163.946 27.4043 159.992 32.81C157.365 36.3917 154.621 39.8557 152.269 43.5846C151.438 44.901 152.491 45.7027 153.649 45.129C157.499 43.2315 160.845 38.6275 163.352 35.1782L164.257 35.215C161.453 39.4807 155.563 46.8868 151.876 47.0412C150.377 47.1001 149.205 46.4161 148.804 43.2315C145.607 45.3423 136.927 50.417 136.845 42.9741C134.664 44.4009 130.74 47.3575 128.477 46.8794C126.934 46.5558 125.799 44.5848 127.913 41.0693C129.864 37.8111 133.655 34.2074 133.811 32.001C133.878 31.0596 133.396 30.3388 132.038 29.9343C130.599 31.4347 118.046 51.3143 113.691 46.2543C112.623 44.9672 112.453 43.2389 111.815 43.5919C108.995 45.1511 105.731 47.99 102.296 46.0336C100.768 45.1658 101.77 41.3561 100.738 42.1357C97.9045 44.2832 93.4903 48.0856 90.7825 46.8206C88.8017 45.8939 89.7216 42.6432 90.8048 41.1722C95.7827 34.4059 97.3332 32.2143 96.2724 32.1996C95.0705 32.1848 90.5377 35.1414 86.1458 39.9146C78.5268 48.218 70.2252 60.3311 68.2741 62.4492C67.6584 63.0597 65.2473 63.1553 63.9564 62.7728C67.7474 58.0806 71.3826 53.0132 75.2254 48.2106C78.6677 43.9082 82.0507 39.9955 85.0033 35.4944C85.2556 35.0384 84.6324 34.7369 84.2392 35.0532C81.932 36.8992 79.6989 38.1495 77.3843 39.4659C76.7092 39.8557 75.9747 40.0837 75.2922 40.5397C74.8916 40.8045 74.6691 41.312 74.3204 41.5767C71.6941 43.6213 70.1214 45.3423 66.0633 46.7471C64.0974 47.4237 62.2501 47.2692 61.0557 46.6882C59.7203 46.0336 59.8019 44.0038 59.5794 43.1065C59.4458 42.5696 59.2752 42.4078 58.7114 42.8711C53.7334 46.975 51.9529 47.9532 49.6828 47.1148C47.7836 46.4161 48.2065 44.092 51.2036 39.6792C53.7928 35.8695 57.4354 32.1407 55.959 30.9934C54.9204 30.1844 50.7882 32.4643 45.7806 37.6052C41.8709 41.6209 38.7847 46.2175 38.666 46.3646C37.3381 46.4896 35.6911 46.8279 34.2296 46.7029C34.6302 46.2469 42.1157 36.2667 43.2211 35.0237C34.7267 39.2159 26.848 50.5641 16.3208 47.7032C7.82641 45.3938 11.7212 33.5381 15.5122 27.191C10.2597 26.7498 4.7699 25.7569 1.49824 21.2117C-0.608674 18.2919 -0.356438 13.607 1.4018 10.9005C7.69287 1.25118 23.5096 -1.0876 34.4077 0.420099ZM44.6455 15.5633C39.2076 19.9541 29.6523 24.5875 22.0778 24.9332C25.7426 20.7631 31.2992 15.2618 37.0265 10.9814C38.3767 9.97379 46.5521 4.7667 50.8995 3.31048C51.901 2.97216 52.6651 2.67062 53.1325 2.85449C53.8299 3.12661 53.4218 3.86943 53.1251 4.93586C52.5168 7.10548 50.4098 10.9078 44.6455 15.5633ZM68.9418 11.533C65.3957 17.0048 59.0378 23.6387 53.2809 27.0292C57.8211 20.6822 62.1833 13.8276 67.8438 8.37048C71.939 4.41367 70.2549 9.51045 68.9418 11.533ZM76.3234 35.1193C75.8783 36.2078 73.2595 35.4062 72.4286 35.9504C71.5903 36.5094 70.8262 37.9509 70.8707 39.1644C70.9003 39.944 72.1096 40.878 71.5532 41.4149C66.9833 45.7762 63.86 46.7103 62.213 46.0851C61.0186 45.6291 61.3747 43.283 64.676 38.7525C66.1004 36.7962 74.3352 27.2793 76.8353 31.0007C77.2508 31.6259 77.1617 33.06 76.3234 35.1193ZM154.687 34.1191C152.38 41.0325 140.072 48.9534 139.345 45.129C138.767 42.0768 146.824 32.7438 151.809 30.8684C154.888 29.7063 155.54 31.5523 154.687 34.1191ZM118.039 35.34C116.963 37.7523 114.782 40.0175 112.586 41.7753C109.211 44.4745 105.59 46.5043 104.107 45.5997C102.014 44.3274 105.412 38.9879 109.537 35.1046C112.074 32.7144 114.953 30.4786 116.919 30.4639C119.53 30.4491 118.64 34.0014 118.039 35.34Z" fill="white"/>
</svg>
