<svg  viewBox="0 0 451 90" fill="none" xmlns="http://www.w3.org/2000/svg">
<g filter="url(#filter0_d_206_49)">
<path d="M17.05 13.45L8.1 38H17.1L24.65 17.3H46.9L49.5 10.1H21.25C20.45 10.1667 19.65 10.5333 18.85 11.2C18.0833 11.8333 17.4833 12.5833 17.05 13.45ZM21.75 27.55H43.05L45.65 20.4H27.25L21.75 27.55ZM57.209 28.55H65.059L68.309 38H78.209L74.959 28.55H77.909C78.3423 28.55 78.8257 28.4 79.359 28.1C79.9257 27.7667 80.459 27.3667 80.959 26.9C81.4923 26.4 81.959 25.8833 82.359 25.35C82.7923 24.7833 83.0923 24.2667 83.259 23.8L86.559 14.85C86.6923 14.5833 86.759 14.1333 86.759 13.5C86.759 12.6667 86.559 11.9 86.159 11.2C85.7923 10.4667 85.2757 10.1 84.609 10.1H53.709L43.559 38H52.559L60.109 17.3H75.059C75.5257 17.4667 75.7923 17.7167 75.859 18.05C75.959 18.35 76.009 18.7 76.009 19.1L75.809 19.55C75.5423 19.95 75.2423 20.3167 74.909 20.65C74.609 20.95 74.159 21.1833 73.559 21.35H62.659C62.359 21.65 61.9423 22.1167 61.409 22.75C60.909 23.3833 60.3757 24.0667 59.809 24.8C59.2757 25.5 58.759 26.2 58.259 26.9C57.7923 27.5667 57.4423 28.1167 57.209 28.55ZM99.0129 32.15C99.2129 31.7167 99.5462 31.15 100.013 30.45C100.513 29.75 101.046 29.05 101.613 28.35C102.18 27.6167 102.73 26.95 103.263 26.35C103.796 25.7167 104.213 25.25 104.513 24.95H108.663L108.113 17.4H107.913L91.5629 38H80.8129L103.413 10.1H116.663L118.963 38H109.613L109.163 32.15H99.0129ZM159.93 17.3H166.23C166.697 17.4667 166.997 17.7167 167.13 18.05C167.297 18.35 167.38 18.7 167.38 19.1L160.48 38H169.48L177.68 15.5C177.813 15.2333 177.88 14.85 177.88 14.35C177.88 13.8833 177.813 13.4 177.68 12.9C177.58 12.4 177.413 11.95 177.18 11.55C176.947 11.1167 176.68 10.7667 176.38 10.5C176.08 10.2333 175.763 10.1 175.43 10.1H159.58C159.013 10.1667 158.347 10.4 157.58 10.8C156.813 11.1667 156.03 11.85 155.23 12.85C155.097 11.85 154.78 11.1667 154.28 10.8C153.813 10.4 153.347 10.1667 152.88 10.1H132.83L122.68 38H131.68L139.23 17.3H147.33C147.797 17.4667 148.097 17.7167 148.23 18.05C148.397 18.35 148.48 18.7 148.48 19.1L141.58 38H150.58L157.48 19.1C157.747 18.7 158.063 18.35 158.43 18.05C158.83 17.7167 159.33 17.4667 159.93 17.3ZM182.616 13.45L174.866 34.65C174.833 34.8167 174.8 34.9667 174.766 35.1C174.766 35.2333 174.766 35.3833 174.766 35.55C174.766 36.2167 174.916 36.7833 175.216 37.25C175.55 37.6833 176.033 37.9333 176.666 38H204.916L207.516 30.8H185.266L190.216 17.3H212.466L215.066 10.1H186.816C186.016 10.1667 185.216 10.5333 184.416 11.2C183.65 11.8333 183.05 12.5833 182.616 13.45ZM187.316 27.55H208.616L211.216 20.4H192.816L187.316 27.55Z" fill="white"/>
</g>
<g filter="url(#filter1_d_206_49)">
<path d="M95.65 56.3H106.2L98.65 77H107.65L115.2 56.3H124.1L129.1 49.1H98.25L95.65 56.3ZM136.181 66.6H151.481L147.681 77H156.681L166.831 49.1H157.831L154.081 59.4H141.631C141.331 59.7 140.915 60.1667 140.381 60.8C139.881 61.4333 139.348 62.1167 138.781 62.85C138.248 63.55 137.731 64.25 137.231 64.95C136.765 65.6167 136.415 66.1667 136.181 66.6ZM131.631 77L141.781 49.1H132.781L122.631 77H131.631ZM169.823 52.45L162.073 73.65C162.04 73.8167 162.007 73.9667 161.973 74.1C161.973 74.2333 161.973 74.3833 161.973 74.55C161.973 75.2167 162.123 75.7833 162.423 76.25C162.757 76.6833 163.24 76.9333 163.873 77H192.123L194.723 69.8H172.473L177.423 56.3H199.673L202.273 49.1H174.023C173.223 49.1667 172.423 49.5333 171.623 50.2C170.857 50.8333 170.257 51.5833 169.823 52.45ZM174.523 66.55H195.823L198.423 59.4H180.023L174.523 66.55ZM227.714 71.15C227.914 70.7167 228.247 70.15 228.714 69.45C229.214 68.75 229.747 68.05 230.314 67.35C230.881 66.6167 231.431 65.95 231.964 65.35C232.497 64.7167 232.914 64.25 233.214 63.95H237.364L236.814 56.4H236.614L220.264 77H209.514L232.114 49.1H245.364L247.664 77H238.314L237.864 71.15H227.714ZM280.812 77H254.312C253.945 77 253.612 76.8667 253.312 76.6C253.045 76.3333 252.795 76 252.562 75.6C252.328 75.1667 252.145 74.7 252.012 74.2C251.912 73.7 251.862 73.2167 251.862 72.75C251.862 72.25 251.928 71.8667 252.062 71.6L258.312 54.5C258.478 54.0667 258.812 53.5333 259.312 52.9C259.812 52.2667 260.362 51.6833 260.962 51.15C261.595 50.5833 262.228 50.1 262.862 49.7C263.495 49.3 264.028 49.1 264.462 49.1H290.962C291.295 49.1 291.612 49.2333 291.912 49.5C292.212 49.7667 292.478 50.1167 292.712 50.55C292.945 50.95 293.112 51.4 293.212 51.9C293.345 52.4 293.412 52.8833 293.412 53.35C293.412 53.85 293.345 54.2333 293.212 54.5L291.362 59.5H282.362L282.912 58.1C282.912 57.7 282.828 57.35 282.662 57.05C282.528 56.7167 282.228 56.4667 281.762 56.3H268.462C267.862 56.4667 267.362 56.7167 266.962 57.05C266.595 57.35 266.278 57.7 266.012 58.1L262.412 68V68.2C262.412 68.5667 262.478 68.8833 262.612 69.15C262.778 69.4167 263.078 69.6333 263.512 69.8H276.812C277.412 69.6333 277.912 69.4 278.312 69.1C278.712 68.7667 279.045 68.4 279.312 68L279.812 66.55H288.812L286.962 71.6C286.795 72.0667 286.462 72.6167 285.962 73.25C285.462 73.85 284.895 74.4333 284.262 75C283.662 75.5667 283.045 76.05 282.412 76.45C281.778 76.8167 281.245 77 280.812 77ZM296.783 56.3H307.333L299.783 77H308.783L316.333 56.3H325.233L330.233 49.1H299.383L296.783 56.3ZM326.364 69.8H335.664L340.614 56.3H331.314L333.914 49.1H361.514L358.914 56.3H349.614L344.664 69.8H353.964L351.364 77H323.764L326.364 69.8ZM372.111 56.3L367.161 69.8H384.261L389.211 56.3H372.111ZM386.461 77H359.761C359.394 77 359.061 76.8667 358.761 76.6C358.494 76.3333 358.244 76 358.011 75.6C357.778 75.1667 357.594 74.7 357.461 74.2C357.361 73.7 357.311 73.2167 357.311 72.75C357.311 72.25 357.378 71.8667 357.511 71.6L363.761 54.5C363.928 54.0667 364.261 53.5333 364.761 52.9C365.261 52.2667 365.811 51.6833 366.411 51.15C367.044 50.5833 367.678 50.1 368.311 49.7C368.944 49.3 369.478 49.1 369.911 49.1H396.611C396.944 49.1 397.261 49.2333 397.561 49.5C397.861 49.7667 398.128 50.1167 398.361 50.55C398.594 50.95 398.761 51.4 398.861 51.9C398.994 52.4 399.061 52.8833 399.061 53.35C399.061 53.85 398.994 54.2333 398.861 54.5L392.611 71.6C392.444 72.0667 392.111 72.6167 391.611 73.25C391.111 73.85 390.544 74.4333 389.911 75C389.311 75.5667 388.694 76.05 388.061 76.45C387.428 76.8167 386.894 77 386.461 77ZM428.327 56.3L420.777 77H429.777L437.977 54.5C438.111 54.2333 438.177 53.85 438.177 53.35C438.177 52.8833 438.111 52.4 437.977 51.9C437.877 51.4 437.711 50.95 437.477 50.55C437.244 50.1167 436.977 49.7667 436.677 49.5C436.377 49.2333 436.061 49.1 435.727 49.1H405.027L394.877 77H403.877L411.427 56.3H428.327Z" fill="white"/>
</g>
<defs>
<filter id="filter0_d_206_49" x="0.0999756" y="3.1001" width="226.966" height="47.8999" filterUnits="userSpaceOnUse" color-interpolation-filters="sRGB">
<feFlood flood-opacity="0" result="BackgroundImageFix"/>
<feColorMatrix in="SourceAlpha" type="matrix" values="0 0 0 0 0 0 0 0 0 0 0 0 0 0 0 0 0 0 127 0" result="hardAlpha"/>
<feOffset dx="2" dy="3"/>
<feGaussianBlur stdDeviation="5"/>
<feComposite in2="hardAlpha" operator="out"/>
<feColorMatrix type="matrix" values="0 0 0 0 0 0 0 0 0 0 0 0 0 0 0 0 0 0 0.45 0"/>
<feBlend mode="normal" in2="BackgroundImageFix" result="effect1_dropShadow_206_49"/>
<feBlend mode="normal" in="SourceGraphic" in2="effect1_dropShadow_206_49" result="shape"/>
</filter>
<filter id="filter1_d_206_49" x="87.65" y="42.1001" width="362.527" height="47.8999" filterUnits="userSpaceOnUse" color-interpolation-filters="sRGB">
<feFlood flood-opacity="0" result="BackgroundImageFix"/>
<feColorMatrix in="SourceAlpha" type="matrix" values="0 0 0 0 0 0 0 0 0 0 0 0 0 0 0 0 0 0 127 0" result="hardAlpha"/>
<feOffset dx="2" dy="3"/>
<feGaussianBlur stdDeviation="5"/>
<feComposite in2="hardAlpha" operator="out"/>
<feColorMatrix type="matrix" values="0 0 0 0 0 0 0 0 0 0 0 0 0 0 0 0 0 0 0.45 0"/>
<feBlend mode="normal" in2="BackgroundImageFix" result="effect1_dropShadow_206_49"/>
<feBlend mode="normal" in="SourceGraphic" in2="effect1_dropShadow_206_49" result="shape"/>
</filter>
</defs>
</svg>
