<svg viewBox="0 0 180 89" fill="none" xmlns="http://www.w3.org/2000/svg">
<path d="M89.7004 63.872C84.1758 63.872 78.7014 63.8218 73.1768 63.872C71.8709 63.872 71.1176 63.5707 70.4647 62.3653C65.9948 54.5806 61.4244 46.8964 56.9043 39.1619C55.6989 37.1028 54.5438 35.0436 53.4891 32.9342C53.238 32.4822 53.2882 31.6284 53.5393 31.1764C57.6074 23.9442 61.7258 16.7622 65.8441 9.58017C67.4513 6.76764 69.0584 3.95512 70.8163 1.19281C71.1678 0.590129 72.1221 0.0376678 72.775 0.0376678C84.0753 -0.0125559 95.4259 -0.0125559 106.726 0.0376678C107.429 0.0376678 108.384 0.590129 108.735 1.14259C114.511 11.0367 120.136 20.981 125.912 30.875C126.414 31.7791 126.414 32.2311 125.912 33.0849C122.095 39.6642 118.328 46.2937 114.511 52.873C112.653 56.1376 110.744 59.3519 108.936 62.6164C108.434 63.5707 107.781 63.872 106.726 63.8218C101.101 63.872 95.4259 63.872 89.7004 63.872ZM89.851 58.7994C94.5218 58.7994 99.1424 58.8496 103.813 58.7492C104.567 58.7492 105.621 58.2469 106.023 57.6443C110.744 49.7089 115.314 41.7233 119.935 33.788C120.487 32.7835 120.839 31.9297 120.086 30.6741C115.314 22.5881 110.694 14.4519 106.023 6.31563C105.471 5.31116 104.667 5.16049 103.612 5.16049C95.1245 5.21071 86.5865 5.31116 78.0987 5.11026C75.3866 5.06004 73.6288 5.66272 72.5741 8.17391C72.3732 8.67615 72.1221 9.12816 71.8709 9.58017C67.7526 16.7622 63.6343 23.8939 59.5661 31.1261C59.2648 31.6786 59.2648 32.6831 59.5661 33.1853C64.0863 41.2211 68.6566 49.2067 73.227 57.1922C73.8799 58.3474 74.7839 58.9501 76.2906 58.8999C80.7605 58.699 85.2807 58.7994 89.851 58.7994Z" fill="white"/>
<path d="M80.9614 35.9478C78.7516 35.9478 76.6924 35.998 74.6333 35.9478C68.3051 35.7469 64.3374 29.9712 67.1499 24.095C68.2548 21.7847 70.314 20.0269 73.0763 19.7758C75.7884 19.5247 78.5005 19.2735 81.2126 19.1229C83.8744 19.0224 86.5865 19.1229 89.3488 19.4242C88.5452 19.7758 87.591 19.9265 86.9381 20.4287C86.2852 20.9309 85.4313 21.7847 85.4313 22.4879C85.3309 30.3228 85.3309 38.1074 85.3811 45.9423C85.3811 47.4993 86.1345 48.4033 87.7416 48.5037C88.1937 48.554 88.6457 48.9055 88.9972 49.3073C85.1802 50.2114 77.496 49.8096 76.6924 48.8051C77.1444 48.7046 77.496 48.554 77.8978 48.5037C80.0072 48.3029 80.861 47.5997 80.9614 45.4903C81.0619 42.3765 80.9614 39.2124 80.9614 35.9478ZM80.9614 27.5605C80.9614 25.9533 80.9112 24.3964 80.9614 22.7892C81.0117 21.6843 80.5597 21.3327 79.505 21.2323C75.2862 20.7803 73.7795 21.6341 71.9714 25.5515C70.8665 27.9622 71.3687 30.3228 72.8754 32.2815C74.4826 34.4411 77.6969 35.2447 79.8565 34.3407C80.3588 34.1398 80.861 33.286 80.9112 32.6833C81.0619 30.9757 80.9614 29.2681 80.9614 27.5605Z" fill="white"/>
<path d="M90.6045 18.8716C95.6771 19.1227 100.75 19.3738 105.822 19.6752C109.137 19.8761 111.447 21.6339 112.703 24.5971C114.561 28.9163 112.703 33.8885 108.333 35.1441C105.923 35.8472 103.211 35.8974 100.649 35.797C98.9918 35.7467 98.6403 36.1485 98.6905 37.6553C98.7909 39.9655 98.7407 42.2758 98.7407 44.6363C98.7407 47.3986 99.2932 48.0516 101.955 48.604C102.307 48.6542 102.558 49.056 102.859 49.2569C102.558 49.4578 102.206 49.8094 101.905 49.8094C98.4896 49.8596 95.0744 49.8596 91.6592 49.8094C91.3578 49.8094 91.0063 49.4578 90.7049 49.2569C91.0565 49.056 91.3578 48.6542 91.7596 48.604C94.0197 48.2525 94.4215 47.9009 94.4215 45.5404C94.4215 38.2077 94.4215 30.875 94.4215 23.5424C94.4215 20.8303 93.9695 20.3783 91.2072 19.8761C91.0063 19.8258 90.8054 19.7254 90.6045 19.6249C90.5543 19.3236 90.6045 19.0725 90.6045 18.8716ZM98.7407 27.6607C98.7407 29.3181 98.6403 30.9755 98.7909 32.5827C98.8412 33.1853 99.3936 34.24 99.7452 34.2903C101.352 34.3907 103.06 34.4912 104.516 33.9889C107.63 32.9342 109.338 29.0168 107.48 24.6473C106.124 21.4832 103.713 20.7801 99.9963 21.3325C99.5443 21.3828 98.8412 22.2366 98.7909 22.7388C98.6403 24.346 98.7407 26.0033 98.7407 27.6607Z" fill="white"/>
<path d="M3.16233 83.9114V86.7239C3.16233 87.3266 3.21255 87.7284 3.36322 87.8791C3.56412 88.08 3.81524 88.1804 4.1668 88.1804H4.51837V88.4315H0.400024V88.1804H0.751591C1.15338 88.1804 1.45472 88.0297 1.60539 87.7786C1.70584 87.628 1.75607 87.2764 1.75607 86.7239V80.4962C1.75607 79.8935 1.70584 79.4917 1.55517 79.341C1.35428 79.1401 1.10316 79.0397 0.751591 79.0397H0.400024V78.7886H3.96591C4.81971 78.7886 5.52284 78.889 6.02508 79.0397C6.52732 79.2406 6.92911 79.5419 7.28067 79.9437C7.63224 80.3455 7.78291 80.8477 7.78291 81.4504C7.78291 82.254 7.53179 82.8567 7.02955 83.3589C6.52732 83.8612 5.77396 84.1123 4.81971 84.1123C4.56859 84.1123 4.31747 84.1123 4.06636 84.0621C3.76501 84.0118 3.46367 83.9616 3.16233 83.9114ZM3.16233 83.5096C3.41345 83.5598 3.61434 83.6101 3.81524 83.6101C4.01613 83.6101 4.1668 83.6603 4.31747 83.6603C4.81971 83.6603 5.2215 83.4594 5.57307 83.1078C5.92463 82.706 6.12553 82.254 6.12553 81.6011C6.12553 81.1993 6.02508 80.7975 5.87441 80.446C5.72374 80.0944 5.47262 79.8433 5.17128 79.6424C4.86994 79.4415 4.51837 79.3913 4.11658 79.3913C3.86546 79.3913 3.56412 79.4415 3.16233 79.5419V83.5096Z" fill="white"/>
<path d="M17.7775 83.2584H22.2474V80.4961C22.2474 79.9939 22.1971 79.6925 22.1469 79.5419C22.0967 79.4414 21.9962 79.341 21.8456 79.2405C21.6447 79.1401 21.4438 79.0898 21.1927 79.0898H20.8411V78.8387H25.0599V79.0898H24.7083C24.4572 79.0898 24.2563 79.1401 24.0554 79.2405C23.9047 79.341 23.8043 79.4414 23.7541 79.5921C23.7039 79.7428 23.6536 80.0441 23.6536 80.5463V86.7238C23.6536 87.2261 23.7039 87.5274 23.7541 87.6781C23.8043 87.7785 23.9047 87.879 24.0554 87.9794C24.2563 88.0799 24.5074 88.1301 24.7083 88.1301H25.0599V88.3812H20.9416V88.1301H21.2931C21.6949 88.1301 21.9962 88.0297 22.1469 87.7786C22.2474 87.6279 22.3478 87.2763 22.3478 86.6736V83.7104H17.8779V86.6736C17.8779 87.1759 17.9281 87.4772 17.9784 87.6279C18.0286 87.7283 18.129 87.8288 18.2797 87.9292C18.4806 88.0297 18.6815 88.0799 18.9326 88.0799H19.2842V88.331H15.1658V88.0799H15.5174C15.9192 88.0799 16.2205 87.9794 16.3712 87.7283C16.4716 87.5777 16.5219 87.2261 16.5219 86.6234V80.3957C16.5219 79.8934 16.4716 79.5921 16.4214 79.4414C16.3712 79.341 16.2707 79.2405 16.1201 79.1401C15.9192 79.0396 15.6681 78.9894 15.4672 78.9894H15.1156V78.7383H19.2339V78.9894H18.8824C18.6313 78.9894 18.4304 79.0396 18.2295 79.1401C18.0788 79.2405 17.9784 79.341 17.9281 79.4916C17.8779 79.6423 17.8277 79.9436 17.8277 80.4459V83.2584H17.7775Z" fill="white"/>
<path d="M36.9126 88.1805V88.4316H32.7943V88.1805H33.0956C33.4974 88.1805 33.7988 88.08 33.9494 87.8289C34.0499 87.6782 34.1001 87.3267 34.1001 86.724V80.4963C34.1001 79.994 34.0499 79.6927 33.9997 79.542C33.9494 79.4415 33.849 79.3411 33.6983 79.2407C33.4974 79.1402 33.2463 79.09 33.0454 79.09H32.6938V78.8389H36.8122V79.09H36.4606C36.0588 79.09 35.7575 79.1904 35.6068 79.4416C35.5064 79.5922 35.4059 79.9438 35.4059 80.5465V86.724C35.4059 87.2262 35.4562 87.5276 35.5064 87.6782C35.5566 87.7787 35.657 87.8791 35.8077 87.9796C36.0086 88.08 36.2095 88.1303 36.4606 88.1303H36.9126V88.1805Z" fill="white"/>
<path d="M52.6829 85.7697L52.934 85.8199L52.1304 88.4315H44.6471V88.1804H44.9987C45.4004 88.1804 45.7018 88.0297 45.8525 87.7786C45.9529 87.628 46.0031 87.2764 46.0031 86.7239V80.4962C46.0031 79.8935 45.9529 79.4917 45.8022 79.341C45.6013 79.1401 45.3502 79.0397 44.9484 79.0397H44.6471V78.7886H49.0166V79.0397C48.5143 79.0397 48.1628 79.0899 47.9619 79.1904C47.761 79.2908 47.6103 79.3913 47.5601 79.5419C47.4596 79.6926 47.4596 80.0442 47.4596 80.6469V86.7239C47.4596 87.1257 47.5098 87.3768 47.5601 87.5275C47.6103 87.628 47.7107 87.6782 47.8112 87.7284C47.9116 87.7786 48.3134 87.7786 48.9161 87.7786H49.6192C50.3726 87.7786 50.8748 87.7284 51.1762 87.628C51.4775 87.5275 51.7286 87.3266 51.9798 87.0253C52.1807 86.8244 52.4318 86.3724 52.6829 85.7697Z" fill="white"/>
<path d="M64.2847 88.1805V88.4316H60.1663V88.1805H60.5179C60.9197 88.1805 61.221 88.08 61.3717 87.8289C61.4721 87.6782 61.5224 87.3267 61.5224 86.724V80.4963C61.5224 79.994 61.4721 79.6927 61.4219 79.542C61.3717 79.4415 61.2712 79.3411 61.1206 79.2407C60.9197 79.1402 60.7188 79.09 60.4677 79.09H60.1161V78.8389H64.2344V79.09H63.8829C63.4811 79.09 63.1797 79.1904 63.0291 79.4416C62.9286 79.5922 62.8282 79.9438 62.8282 80.5465V86.724C62.8282 87.2262 62.8784 87.5276 62.9286 87.6782C62.9788 87.7787 63.0793 87.8791 63.23 87.9796C63.4309 88.08 63.6317 88.1303 63.8829 88.1303H64.2847V88.1805Z" fill="white"/>
<path d="M74.6809 83.9114V86.7239C74.6809 87.3266 74.7311 87.7284 74.8818 87.8791C75.0827 88.08 75.3338 88.1804 75.6854 88.1804H76.0369V88.4315H71.9186V88.1804H72.2701C72.6719 88.1804 72.9733 88.0297 73.1239 87.7786C73.2244 87.628 73.2746 87.2764 73.2746 86.7239V80.4962C73.2746 79.8935 73.2244 79.4917 73.0737 79.341C72.8728 79.1401 72.6217 79.0397 72.2701 79.0397H71.9186V78.7886H75.4845C76.3383 78.7886 77.0414 78.889 77.5436 79.0397C78.0459 79.2406 78.4477 79.5419 78.7992 79.9437C79.1508 80.3455 79.3015 80.8477 79.3015 81.4504C79.3015 82.254 79.0503 82.8567 78.4979 83.3589C77.9956 83.8612 77.2423 84.1123 76.288 84.1123C76.0369 84.1123 75.7858 84.1123 75.5347 84.0621C75.2836 84.0118 74.9822 83.9616 74.6809 83.9114ZM74.6809 83.5096C74.932 83.5598 75.1329 83.6101 75.3338 83.6101C75.5347 83.6101 75.6854 83.6603 75.836 83.6603C76.3383 83.6603 76.7401 83.4594 77.0916 83.1078C77.4432 82.706 77.6441 82.254 77.6441 81.6011C77.6441 81.1993 77.5436 80.7975 77.393 80.446C77.2423 80.0944 76.9912 79.8433 76.6898 79.6424C76.3885 79.4415 76.0369 79.3913 75.6351 79.3913C75.384 79.3913 75.0827 79.4415 74.6809 79.5419V83.5096Z" fill="white"/>
<path d="M89.3462 83.9114V86.7239C89.3462 87.3266 89.3964 87.7284 89.5471 87.8791C89.748 88.08 89.9991 88.1804 90.3506 88.1804H90.7022V88.4315H86.5839V88.1804H86.9354C87.3372 88.1804 87.6386 88.0297 87.7892 87.7786C87.8897 87.628 87.9399 87.2764 87.9399 86.7239V80.4962C87.9399 79.8935 87.8897 79.4917 87.739 79.341C87.5381 79.1401 87.287 79.0397 86.9354 79.0397H86.5839V78.7886H90.1497C91.0036 78.7886 91.7067 78.889 92.2089 79.0397C92.7112 79.2406 93.1129 79.5419 93.4645 79.9437C93.8161 80.3455 93.9667 80.8477 93.9667 81.4504C93.9667 82.254 93.7156 82.8567 93.1632 83.3589C92.6609 83.8612 91.9076 84.1123 90.9533 84.1123C90.7022 84.1123 90.4511 84.1123 90.2 84.0621C89.9488 84.0118 89.6475 83.9616 89.3462 83.9114ZM89.3462 83.5096C89.5973 83.5598 89.7982 83.6101 89.9991 83.6101C90.2 83.6101 90.3506 83.6603 90.5013 83.6603C91.0036 83.6603 91.4053 83.4594 91.7569 83.1078C92.1085 82.706 92.3094 82.254 92.3094 81.6011C92.3094 81.1993 92.2089 80.7975 92.0582 80.446C91.9076 80.0944 91.6565 79.8433 91.3551 79.6424C91.0538 79.4415 90.7022 79.3913 90.3004 79.3913C90.0493 79.3913 89.748 79.4415 89.3462 79.5419V83.5096Z" fill="white"/>
<path d="M114.709 83.9114V86.7239C114.709 87.3266 114.759 87.7284 114.91 87.8791C115.111 88.08 115.362 88.1804 115.714 88.1804H116.065V88.4315H111.947V88.1804H112.298C112.7 88.1804 113.002 88.0297 113.152 87.7786C113.253 87.628 113.303 87.2764 113.303 86.7239V80.4962C113.303 79.8935 113.253 79.4917 113.102 79.341C112.901 79.1401 112.65 79.0397 112.298 79.0397H111.947V78.7886H115.513C116.367 78.7886 117.07 78.889 117.572 79.0397C118.074 79.2406 118.476 79.5419 118.828 79.9437C119.179 80.3455 119.33 80.8477 119.33 81.4504C119.33 82.254 119.079 82.8567 118.526 83.3589C118.024 83.8612 117.271 84.1123 116.316 84.1123C116.065 84.1123 115.814 84.1123 115.563 84.0621C115.262 84.0118 115.011 83.9616 114.709 83.9114ZM114.709 83.5096C114.96 83.5598 115.161 83.6101 115.362 83.6101C115.563 83.6101 115.714 83.6603 115.864 83.6603C116.367 83.6603 116.768 83.4594 117.12 83.1078C117.472 82.706 117.672 82.254 117.672 81.6011C117.672 81.1993 117.572 80.7975 117.421 80.446C117.271 80.0944 117.019 79.8433 116.718 79.6424C116.417 79.4415 116.065 79.3913 115.663 79.3913C115.412 79.3913 115.111 79.4415 114.709 79.5419V83.5096Z" fill="white"/>
<path d="M134.698 85.7697L134.949 85.8199L134.146 88.4315H126.662V88.1804H127.014C127.416 88.1804 127.717 88.0297 127.868 87.7786C127.968 87.628 128.019 87.2764 128.019 86.7239V80.4962C128.019 79.8935 127.968 79.4917 127.818 79.341C127.617 79.1401 127.366 79.0397 127.014 79.0397H126.662V78.7886H131.032V79.0397C130.53 79.0397 130.178 79.0899 129.977 79.1904C129.776 79.2908 129.626 79.3913 129.575 79.5419C129.525 79.6926 129.475 80.0442 129.475 80.6469V86.7239C129.475 87.1257 129.525 87.3768 129.575 87.5275C129.626 87.628 129.726 87.6782 129.827 87.7284C129.927 87.7786 130.329 87.7786 130.931 87.7786H131.635C132.388 87.7786 132.89 87.7284 133.192 87.628C133.493 87.5275 133.744 87.3266 133.995 87.0253C134.196 86.8244 134.447 86.3724 134.698 85.7697Z" fill="white"/>
<path d="M144.843 79.2907V83.1077H146.953C147.505 83.1077 147.857 83.0073 148.058 82.8566C148.309 82.6557 148.459 82.2539 148.459 81.7015H148.711V85.0665H148.459C148.409 84.6145 148.309 84.3131 148.259 84.1624C148.158 84.0118 148.007 83.8611 147.857 83.7607C147.656 83.6602 147.355 83.61 146.953 83.61H144.843V86.7741C144.843 87.2261 144.843 87.4772 144.894 87.5777C144.944 87.6781 144.994 87.7283 145.094 87.7786C145.195 87.8288 145.396 87.879 145.647 87.879H147.304C147.857 87.879 148.259 87.8288 148.51 87.7786C148.761 87.6781 149.012 87.5274 149.213 87.3265C149.514 87.0252 149.816 86.5732 150.117 86.0207H150.418L149.564 88.4315H142.081V88.1803H142.433C142.684 88.1803 142.885 88.1301 143.086 88.0297C143.236 87.9292 143.337 87.8288 143.387 87.6781C143.437 87.5274 143.487 87.2261 143.487 86.7238V80.4459C143.487 79.8432 143.437 79.4414 143.286 79.2907C143.136 79.0898 142.834 78.9894 142.433 78.9894H142.081V78.7383H149.514L149.615 80.8477H149.313C149.213 80.3454 149.112 79.9939 148.962 79.793C148.861 79.5921 148.66 79.4414 148.409 79.341C148.208 79.2907 147.907 79.2405 147.405 79.2405H144.843V79.2907Z" fill="white"/>
<path d="M162.271 88.1805V88.4316H158.153V88.1805H158.504C158.906 88.1805 159.207 88.08 159.358 87.8289C159.458 87.6782 159.509 87.3267 159.509 86.724V80.4963C159.509 79.994 159.458 79.6927 159.408 79.542C159.358 79.4415 159.258 79.3411 159.107 79.2407C158.906 79.1402 158.655 79.09 158.454 79.09H158.102V78.8389H162.221V79.09H161.869C161.467 79.09 161.166 79.1904 161.015 79.4416C160.915 79.5922 160.814 79.9438 160.814 80.5465V86.724C160.814 87.2262 160.865 87.5276 160.915 87.6782C160.965 87.7787 161.066 87.8791 161.216 87.9796C161.417 88.08 161.618 88.1303 161.869 88.1303H162.271V88.1805Z" fill="white"/>
<path d="M169.503 78.7886H172.115L178.041 86.0208V80.446C178.041 79.8433 177.991 79.4917 177.84 79.341C177.639 79.1401 177.388 79.0397 176.987 79.0397H176.635V78.7886H180V79.0397H179.648C179.247 79.0397 178.945 79.1401 178.795 79.3913C178.694 79.5419 178.644 79.8935 178.644 80.446V88.5822H178.393L172.014 80.7975V86.7742C172.014 87.3768 172.065 87.7284 172.215 87.8791C172.416 88.08 172.667 88.1804 173.069 88.1804H173.421V88.4315H170.056V88.1804H170.407C170.809 88.1804 171.11 88.08 171.261 87.8288C171.362 87.6782 171.412 87.3266 171.412 86.7742V80.0442C171.11 79.7428 170.909 79.4917 170.759 79.3913C170.608 79.2908 170.407 79.1904 170.106 79.0899C169.955 79.0397 169.754 79.0397 169.453 79.0397V78.7886H169.503Z" fill="white"/>
</svg>
